HIERARCHY
ROOT reference
{
  OFFSET 0 0 0
  CHANNELS 6 Xposition Yposition Zposition Zrotation Xrotation Yrotation
  JOINT Hips
  {
    OFFSET 355.919 86.4685 225.794
    CHANNELS 3 Zrotation Xrotation Yrotation
    JOINT RightUpLeg
    {
      OFFSET -9.27022 -1.53975 0.0125073
      CHANNELS 3 Zrotation Xrotation Yrotation
      JOINT RightLeg
      {
        OFFSET 0.013591 -41.8786 0.0152335
        CHANNELS 3 Zrotation Xrotation Yrotation
        JOINT RightFoot
        {
          OFFSET -0.635566 -43.1371 -0.638083
          CHANNELS 3 Zrotation Xrotation Yrotation
          End Site
          {
            OFFSET 0 -7.69 17.5
          }
        }
      }
    }
    JOINT LeftUpLeg
    {
      OFFSET 9.3307 -1.62449 -0.0651281
      CHANNELS 3 Zrotation Xrotation Yrotation
      JOINT LeftLeg
      {
        OFFSET 0.136006 -41.8606 -0.0682192
        CHANNELS 3 Zrotation Xrotation Yrotation
        JOINT LeftFoot
        {
          OFFSET 0.555276 -40.3296 1.11688
          CHANNELS 3 Zrotation Xrotation Yrotation
          End Site
          {
            OFFSET 0 -7.69 17.5
          }
        }
      }
    }
    JOINT Spine
    {
      OFFSET 0.0523142 14.2998 0.0636653
      CHANNELS 3 Zrotation Xrotation Yrotation
      JOINT Spine1
      {
        OFFSET 0.0411785 9.71676 0.0113233
        CHANNELS 3 Zrotation Xrotation Yrotation
        JOINT Spine2
        {
          OFFSET 0.0674534 10.1151 -0.00111457
          CHANNELS 3 Zrotation Xrotation Yrotation
          JOINT Spine3
          {
            OFFSET 0.048863 9.72171 0.0174249
            CHANNELS 3 Zrotation Xrotation Yrotation
            JOINT Neck
            {
              OFFSET 0.180558 10.3768 0.0617075
              CHANNELS 3 Zrotation Xrotation Yrotation
              JOINT Head
              {
                OFFSET 0.135918 9.47305 0.0380206
                CHANNELS 3 Zrotation Xrotation Yrotation
                End Site
                {
                  OFFSET 0 15.95 0
                }
              }
            }
            JOINT RightShoulder
            {
              OFFSET -3.15694 6.89408 0.00348883
              CHANNELS 3 Zrotation Xrotation Yrotation
              JOINT RightArm
              {
                OFFSET -12.7409 -0.0031918 0.045926
                CHANNELS 3 Zrotation Xrotation Yrotation
                JOINT RightForeArm
                {
                  OFFSET -26.5086 -0.0806184 0.00400063
                  CHANNELS 3 Zrotation Xrotation Yrotation
                  JOINT RightHand
                  {
                    OFFSET -26.0338 -0.025514 0.155859
                    CHANNELS 3 Zrotation Xrotation Yrotation
                    JOINT RightHandThumb1
                    {
                      OFFSET -2.48905 0.190105 3.12053
                      CHANNELS 3 Zrotation Xrotation Yrotation
                      JOINT RightHandThumb2
                      {
                        OFFSET -3.68274 0 0
                        CHANNELS 3 Zrotation Xrotation Yrotation
                        JOINT RightHandThumb3
                        {
                          OFFSET -2.55832 0 0
                          CHANNELS 3 Zrotation Xrotation Yrotation
                          End Site
                          {
                            OFFSET -2.194 0 0
                          }
                        }
                      }
                    }
                    JOINT RightInHandIndex
                    {
                      OFFSET -3.22368 0.508421 1.97842
                      CHANNELS 3 Zrotation Xrotation Yrotation
                      JOINT RightHandIndex1
                      {
                        OFFSET -5.21684 -0.091368 0.999158
                        CHANNELS 3 Zrotation Xrotation Yrotation
                        JOINT RightHandIndex2
                        {
                          OFFSET -3.61937 0 0
                          CHANNELS 3 Zrotation Xrotation Yrotation
                          JOINT RightHandIndex3
                          {
                            OFFSET -2.0521 0 0
                            CHANNELS 3 Zrotation Xrotation Yrotation
                            End Site
                            {
                              OFFSET -1.805 0 0
                            }
                          }
                        }
                      }
                    }
                    JOINT RightInHandMiddle
                    {
                      OFFSET -3.38211 0.517263 0.756737
                      CHANNELS 3 Zrotation Xrotation Yrotation
                      JOINT RightHandMiddle1
                      {
                        OFFSET -5.17411 -0.084 0.313895
                        CHANNELS 3 Zrotation Xrotation Yrotation
                        JOINT RightHandMiddle2
                        {
                          OFFSET -3.94947 0 0
                          CHANNELS 3 Zrotation Xrotation Yrotation
                          JOINT RightHandMiddle3
                          {
                            OFFSET -2.47579 0 0
                            CHANNELS 3 Zrotation Xrotation Yrotation
                            End Site
                            {
                              OFFSET -1.975 0 0
                            }
                          }
                        }
                      }
                    }
                    JOINT RightInHandRing
                    {
                      OFFSET -3.36516 0.537895 -0.128947
                      CHANNELS 3 Zrotation Xrotation Yrotation
                      JOINT RightHandRing1
                      {
                        OFFSET -4.63474 -0.022105 -0.478947
                        CHANNELS 3 Zrotation Xrotation Yrotation
                        JOINT RightHandRing2
                        {
                          OFFSET -3.44238 0 0
                          CHANNELS 3 Zrotation Xrotation Yrotation
                          JOINT RightHandRing3
                          {
                            OFFSET -2.3881 0 0
                            CHANNELS 3 Zrotation Xrotation Yrotation
                            End Site
                            {
                              OFFSET -1.857 0 0
                            }
                          }
                        }
                      }
                    }
                    JOINT RightInHandPinky
                    {
                      OFFSET -3.16105 0.469368 -1.20179
                      CHANNELS 3 Zrotation Xrotation Yrotation
                      JOINT RightHandPinky1
                      {
                        OFFSET -4.14105 -0.022105 -1.09053
                        CHANNELS 3 Zrotation Xrotation Yrotation
                        JOINT RightHandPinky2
                        {
                          OFFSET -2.75653 0 0
                          CHANNELS 3 Zrotation Xrotation Yrotation
                          JOINT RightHandPinky3
                          {
                            OFFSET -1.74189 0 0
                            CHANNELS 3 Zrotation Xrotation Yrotation
                            End Site
                            {
                              OFFSET -1.645 0 0
                            }
                          }
                        }
                      }
                    }
                  }
                }
              }
            }
            JOINT LeftShoulder
            {
              OFFSET 3.22505 6.94333 0.022328
              CHANNELS 3 Zrotation Xrotation Yrotation
              JOINT LeftArm
              {
                OFFSET 12.8536 -0.0213048 -0.00476292
                CHANNELS 3 Zrotation Xrotation Yrotation
                JOINT LeftForeArm
                {
                  OFFSET 26.4992 -0.0497473 -0.102272
                  CHANNELS 3 Zrotation Xrotation Yrotation
                  JOINT LeftHand
                  {
                    OFFSET 25.9818 -0.0182282 -0.0189166
                    CHANNELS 3 Zrotation Xrotation Yrotation
                    JOINT LeftHandThumb1
                    {
                      OFFSET 2.48905 0.190105 3.12053
                      CHANNELS 3 Zrotation Xrotation Yrotation
                      JOINT LeftHandThumb2
                      {
                        OFFSET 3.68274 0 0
                        CHANNELS 3 Zrotation Xrotation Yrotation
                        JOINT LeftHandThumb3
                        {
                          OFFSET 2.55832 0 0
                          CHANNELS 3 Zrotation Xrotation Yrotation
                          End Site
                          {
                            OFFSET 2.194 0 0
                          }
                        }
                      }
                    }
                    JOINT LeftInHandIndex
                    {
                      OFFSET 3.22368 0.508421 1.97842
                      CHANNELS 3 Zrotation Xrotation Yrotation
                      JOINT LeftHandIndex1
                      {
                        OFFSET 5.21684 -0.091368 0.999158
                        CHANNELS 3 Zrotation Xrotation Yrotation
                        JOINT LeftHandIndex2
                        {
                          OFFSET 3.61937 0 0
                          CHANNELS 3 Zrotation Xrotation Yrotation
                          JOINT LeftHandIndex3
                          {
                            OFFSET 2.0521 0 0
                            CHANNELS 3 Zrotation Xrotation Yrotation
                            End Site
                            {
                              OFFSET 1.805 0 0
                            }
                          }
                        }
                      }
                    }
                    JOINT LeftInHandMiddle
                    {
                      OFFSET 3.38211 0.517263 0.756737
                      CHANNELS 3 Zrotation Xrotation Yrotation
                      JOINT LeftHandMiddle1
                      {
                        OFFSET 5.17411 -0.084 0.313895
                        CHANNELS 3 Zrotation Xrotation Yrotation
                        JOINT LeftHandMiddle2
                        {
                          OFFSET 3.94947 0 0
                          CHANNELS 3 Zrotation Xrotation Yrotation
                          JOINT LeftHandMiddle3
                          {
                            OFFSET 2.47579 0 0
                            CHANNELS 3 Zrotation Xrotation Yrotation
                            End Site
                            {
                              OFFSET 1.975 0 0
                            }
                          }
                        }
                      }
                    }
                    JOINT LeftInHandRing
                    {
                      OFFSET 3.36516 0.537895 -0.128947
                      CHANNELS 3 Zrotation Xrotation Yrotation
                      JOINT LeftHandRing1
                      {
                        OFFSET 4.63474 -0.022105 -0.478947
                        CHANNELS 3 Zrotation Xrotation Yrotation
                        JOINT LeftHandRing2
                        {
                          OFFSET 3.44238 0 0
                          CHANNELS 3 Zrotation Xrotation Yrotation
                          JOINT LeftHandRing3
                          {
                            OFFSET 2.3881 0 0
                            CHANNELS 3 Zrotation Xrotation Yrotation
                            End Site
                            {
                              OFFSET 1.857 0 0
                            }
                          }
                        }
                      }
                    }
                    JOINT LeftInHandPinky
                    {
                      OFFSET 3.16105 0.469368 -1.20179
                      CHANNELS 3 Zrotation Xrotation Yrotation
                      JOINT LeftHandPinky1
                      {
                        OFFSET 4.14105 -0.022105 -1.09053
                        CHANNELS 3 Zrotation Xrotation Yrotation
                        JOINT LeftHandPinky2
                        {
                          OFFSET 2.75653 0 0
                          CHANNELS 3 Zrotation Xrotation Yrotation
                          JOINT LeftHandPinky3
                          {
                            OFFSET 1.74189 0 0
                            CHANNELS 3 Zrotation Xrotation Yrotation
                            End Site
                            {
                              OFFSET 1.645 0 0
                            }
                          }
                        }
                      }
                    }
                  }
                }
              }
            }
          }
        }
      }
    }
  }
}
MOTION
Frames: 2
Frame Time: 0.00833333
2.250000000000000000e+03 0.000000000000000000e+00 0.000000000000000000e+00 0.000000000000000000e+00 0.000000000000000000e+00 0.000000000000000000e+00 3.184060000000000201e+01 1.126290000000000191e+01 -1.129929999999999950e+02 3.758780000000000143e+01 -4.632870000000000488e+01 2.788909999999999911e+01 -7.830899999999998418e-01 2.181220000000000425e+01 -1.027619999999999933e+01 6.523410000000001041e+00 1.029970000000000052e+00 3.669230000000001013e+01 4.696200000000001040e+01 -1.644979999999999620e+01 1.672019999999999840e+01 -6.767400000000000304e+00 3.641830000000000211e+01 -5.312949999999996287e-01 6.940109999999998891e+00 -1.107049999999999734e+01 2.254970000000000496e+01 -3.647490000000000343e+00 -2.971729999999999983e+00 -9.398569999999999425e+00 -8.667920000000000069e-01 -8.109540000000000637e-01 -2.310509999999999842e+00 -1.451690000000000147e+00 -1.386899999999999800e+00 -3.788710000000000910e+00 -5.371860000000000523e-01 -2.173090000000000299e-01 2.587769999999999904e+00 -1.473479999999999901e+00 -2.732709999999999972e+00 2.855440000000000111e+01 -9.483470000000000510e+00 5.189820000000000988e+00 3.154540000000000077e+01 9.391040000000000276e+00 4.204860000000000042e+00 -4.805500000000000327e+00 5.962520000000000664e+01 -4.220730000000000359e+01 9.538690000000000779e+00 2.656579999999999586e+01 -1.121809999999999974e+01 1.204519999999999982e+02 1.237909999999999755e+01 -3.181960000000000122e+01 7.956339999999999968e+00 2.818400000000000105e+01 1.072940000000000005e+01 1.915919999999999845e+01 1.993850000000000006e-14 3.180549999999999982e-15 -1.000000000000000000e+01 6.616350000000000315e-15 3.180550000000001165e-15 -1.000000000000000000e+01 1.590280000000000668e-15 0.000000000000000000e+00 0.000000000000000000e+00 1.998179999999999978e+01 8.718970000000000331e-01 2.396399999999999864e+00 2.400000000000000000e+01 6.361110000000002897e-15 2.862499999999999793e-14 2.000000000000000000e+01 6.361110000000001319e-15 2.544439999999999986e-14 1.590280000000000668e-15 0.000000000000000000e+00 0.000000000000000000e+00 2.000000000000000000e+01 1.590280000000000116e-14 1.749310000000000020e-14 2.400000000000000000e+01 9.541660000000000512e-15 3.339580000000000044e-14 2.000000000000000000e+01 0.000000000000000000e+00 6.361110000000001319e-15 1.590280000000000668e-15 0.000000000000000000e+00 0.000000000000000000e+00 1.997479999999999833e+01 -1.025649999999999951e+00 -2.819380000000000219e+00 2.400000000000000000e+01 6.361109999999999741e-15 9.541659999999998934e-15 2.000000000000000000e+01 -1.590280000000000116e-14 9.541660000000003667e-15 1.590280000000000668e-15 0.000000000000000000e+00 0.000000000000000000e+00 1.978150000000000119e+01 -3.009479999999999933e+00 -8.305149999999999366e+00 2.400000000000000000e+01 6.361109999999998952e-15 3.339580000000000044e-14 2.000000000000000000e+01 -6.361110000000000530e-15 1.272220000000000151e-14 7.475309999999999455e+00 -1.487469999999999892e+01 -4.950639999999999219e+01 -1.440010000000000190e+01 3.497760000000000247e+01 -1.101760000000000019e+02 2.651970000000000027e+01 -8.598959999999998161e+00 -2.461810000000000187e+01 -4.111640000000000583e+01 -1.045870000000000211e+01 -1.120620000000000260e+01 -2.818400000000000105e+01 1.072940000000000005e+01 -1.915919999999999845e+01 2.668800000000000689e-15 3.180549999999999193e-15 1.000000000000000000e+01 5.337599999999998222e-15 6.361109999999999741e-15 1.000000000000000000e+01 1.590280000000000077e-15 9.541660000000000512e-15 3.180549999999999982e-15 -1.998179999999999978e+01 8.718970000000000331e-01 -2.396399999999999864e+00 -2.400000000000000000e+01 -3.180550000000000376e-15 1.113190000000000247e-14 -2.000000000000000000e+01 -6.361109999999999741e-15 6.361109999999999741e-15 1.590280000000000077e-15 9.541660000000000512e-15 3.180549999999999982e-15 -2.000000000000000000e+01 -6.361109999999999741e-15 6.361109999999999741e-15 -2.400000000000000000e+01 -3.180550000000000376e-15 9.939230000000001172e-15 -2.000000000000000000e+01 -6.361110000000000530e-15 1.669790000000000337e-14 1.590280000000000077e-15 9.541660000000000512e-15 3.180549999999999982e-15 -1.997479999999999833e+01 -1.025649999999999951e+00 2.819380000000000219e+00 -2.400000000000000000e+01 0.000000000000000000e+00 -1.113190000000000089e-14 -2.000000000000000000e+01 0.000000000000000000e+00 1.669790000000000022e-14 1.590280000000000077e-15 9.541660000000000512e-15 3.180549999999999982e-15 -1.978150000000000119e+01 -3.009479999999999933e+00 8.305149999999999366e+00 -2.400000000000000000e+01 0.000000000000000000e+00 1.192710000000000087e-14 -2.000000000000000000e+01 0.000000000000000000e+00 9.541660000000002090e-15
2.250000000000000000e+03 0.000000000000000000e+00 0.000000000000000000e+00 0.000000000000000000e+00 0.000000000000000000e+00 0.000000000000000000e+00 3.191939999999999955e+01 1.167559999999999754e+01 -1.123699999999999761e+02 3.720409999999999684e+01 -4.670519999999999072e+01 2.743500000000000227e+01 -5.812709999999998711e-01 2.193310000000000315e+01 -1.046780000000000044e+01 6.436499999999999666e+00 9.703709999999998725e-01 3.638600000000000279e+01 4.703050000000000352e+01 -1.735919999999999419e+01 1.686260000000000048e+01 -6.149119999999999919e+00 3.676579999999999870e+01 -1.043919999999999737e+00 7.325540000000000163e+00 -1.066069999999999851e+01 2.195270000000000010e+01 -3.224540000000000184e+00 -2.574809999999999377e+00 -9.349980000000000402e+00 -7.714460000000000761e-01 -9.161860000000000559e-01 -2.255140000000000366e+00 -1.293490000000000029e+00 -1.269649999999999945e+00 -3.770119999999999916e+00 -5.540279999999999649e-01 -2.209019999999999595e-01 2.572340000000000071e+00 -1.535500000000000309e+00 -2.755360000000000475e+00 2.779360000000000142e+01 -9.824170000000002290e+00 5.196430000000000327e+00 3.180160000000000053e+01 9.104900000000002436e+00 3.968269999999999520e+00 -4.719509999999999650e+00 6.035520000000000351e+01 -4.124770000000000181e+01 9.994210000000000704e+00 2.586339999999999861e+01 -1.150799999999999912e+01 1.196709999999999923e+02 1.244900000000000162e+01 -3.215390000000000015e+01 8.592689999999999273e+00 2.818400000000000105e+01 1.072940000000000005e+01 1.915919999999999845e+01 2.253970000000000139e-14 -9.541659999999998934e-15 -1.000000000000000000e+01 4.931750000000001695e-16 -6.361110000000000530e-15 -1.000000000000000000e+01 -1.590279999999999880e-15 -6.361109999999999741e-15 -4.770830000000001045e-15 1.998179999999999978e+01 8.718970000000000331e-01 2.396399999999999864e+00 2.400000000000000000e+01 2.226389999999999639e-14 2.226389999999999639e-14 2.000000000000000000e+01 -6.361109999999999741e-15 1.272219999999999677e-14 -1.590279999999999880e-15 -6.361109999999999741e-15 -4.770830000000001045e-15 2.000000000000000000e+01 3.180549999999999193e-15 1.858639999999999767e-14 2.400000000000000000e+01 6.361110000000000530e-15 2.544439999999999354e-14 2.000000000000000000e+01 0.000000000000000000e+00 -3.180550000000000771e-15 -1.590279999999999880e-15 -6.361109999999999741e-15 -4.770830000000001045e-15 1.997479999999999833e+01 -1.025649999999999951e+00 -2.819380000000000219e+00 2.400000000000000000e+01 6.361109999999999741e-15 1.749310000000000020e-14 2.000000000000000000e+01 0.000000000000000000e+00 6.361109999999999741e-15 -1.590279999999999880e-15 -6.361109999999999741e-15 -4.770830000000001045e-15 1.978150000000000119e+01 -3.009479999999999933e+00 -8.305149999999999366e+00 2.400000000000000000e+01 6.361109999999998952e-15 3.180549999999999509e-14 2.000000000000000000e+01 -3.180549999999999193e-15 6.361109999999999741e-15 7.406679999999998820e+00 -1.496840000000000082e+01 -4.915330000000000865e+01 -1.471149999999999736e+01 3.518220000000000169e+01 -1.098779999999999859e+02 2.635970000000000368e+01 -8.529709999999997905e+00 -2.415390000000000015e+01 -4.114079999999999870e+01 -1.027519999999999811e+01 -1.119359999999999999e+01 -2.818400000000000105e+01 1.072940000000000005e+01 -1.915919999999999845e+01 1.000310000000000195e-14 -6.361109999999999741e-15 1.000000000000000000e+01 7.513230000000000011e-15 3.180549999999999982e-15 1.000000000000000000e+01 3.180550000000000376e-15 6.361109999999998952e-15 0.000000000000000000e+00 -1.998179999999999978e+01 8.718970000000000331e-01 -2.396399999999999864e+00 -2.400000000000000000e+01 -9.541660000000002090e-15 -6.361109999999998952e-15 -2.000000000000000000e+01 3.180549999999999587e-15 -7.951389999999999226e-16 3.180550000000000376e-15 6.361109999999998952e-15 0.000000000000000000e+00 -2.000000000000000000e+01 3.180549999999999982e-15 0.000000000000000000e+00 -2.400000000000000000e+01 -6.361109999999998163e-15 -5.565969999999999999e-15 -2.000000000000000000e+01 0.000000000000000000e+00 9.541660000000000512e-15 3.180550000000000376e-15 6.361109999999998952e-15 0.000000000000000000e+00 -1.997479999999999833e+01 -1.025649999999999951e+00 2.819380000000000219e+00 -2.400000000000000000e+01 3.180550000000000771e-15 -1.828819999999999926e-14 -2.000000000000000000e+01 -3.180549999999999982e-15 -7.951389999999983449e-16 3.180550000000000376e-15 6.361109999999998952e-15 0.000000000000000000e+00 -1.978150000000000119e+01 -3.009479999999999933e+00 8.305149999999999366e+00 -2.400000000000000000e+01 3.180550000000000771e-15 -1.192709999999999929e-14 -2.000000000000000000e+01 6.361109999999999741e-15 6.361109999999998952e-15
